<svg width="18" height="18" viewBox="0 0 18 18" fill="none" xmlns="http://www.w3.org/2000/svg">
<path fill-rule="evenodd" clip-rule="evenodd" d="M4.23537 2.11769C4.23537 3.28725 3.28725 4.23537 2.11769 4.23537C0.94812 4.23537 0 3.28725 0 2.11769C0 0.94812 0.94812 0 2.11769 0C3.28725 0 4.23537 0.94812 4.23537 2.11769ZM4.23537 9.53024C4.23537 10.6998 3.28725 11.6479 2.11769 11.6479C0.94812 11.6479 0 10.6998 0 9.53024C0 8.36067 0.94812 7.41255 2.11769 7.41255C3.28725 7.41255 4.23537 8.36067 4.23537 9.53024ZM2.11769 18.0002C3.28725 18.0002 4.23537 17.0521 4.23537 15.8825C4.23537 14.713 3.28725 13.7648 2.11769 13.7648C0.94812 13.7648 0 14.713 0 15.8825C0 17.0521 0.94812 18.0002 2.11769 18.0002ZM11.6475 2.11769C11.6475 3.28725 10.6993 4.23537 9.52978 4.23537C8.36021 4.23537 7.41209 3.28725 7.41209 2.11769C7.41209 0.94812 8.36021 0 9.52978 0C10.6993 0 11.6475 0.94812 11.6475 2.11769ZM9.52978 11.6479C10.6993 11.6479 11.6475 10.6998 11.6475 9.53024C11.6475 8.36067 10.6993 7.41255 9.52978 7.41255C8.36021 7.41255 7.41209 8.36067 7.41209 9.53024C7.41209 10.6998 8.36021 11.6479 9.52978 11.6479ZM11.6475 15.8825C11.6475 17.0521 10.6993 18.0002 9.52978 18.0002C8.36021 18.0002 7.41209 17.0521 7.41209 15.8825C7.41209 14.713 8.36021 13.7648 9.52978 13.7648C10.6993 13.7648 11.6475 14.713 11.6475 15.8825ZM15.883 4.23537C17.0526 4.23537 18.0007 3.28725 18.0007 2.11769C18.0007 0.94812 17.0526 0 15.883 0C14.7134 0 13.7653 0.94812 13.7653 2.11769C13.7653 3.28725 14.7134 4.23537 15.883 4.23537ZM18.0007 9.53024C18.0007 10.6998 17.0526 11.6479 15.883 11.6479C14.7134 11.6479 13.7653 10.6998 13.7653 9.53024C13.7653 8.36067 14.7134 7.41255 15.883 7.41255C17.0526 7.41255 18.0007 8.36067 18.0007 9.53024ZM15.883 18.0002C17.0526 18.0002 18.0007 17.0521 18.0007 15.8825C18.0007 14.713 17.0526 13.7648 15.883 13.7648C14.7134 13.7648 13.7653 14.713 13.7653 15.8825C13.7653 17.0521 14.7134 18.0002 15.883 18.0002Z" fill="url(#paint0_linear)"/>
<defs>
<linearGradient id="paint0_linear" x1="7.73936" y1="1.08971e-05" x2="7.73936" y2="18.0002" gradientUnits="userSpaceOnUse">
<stop stop-color="#55BCFC"/>
<stop offset="1" stop-color="#3D75F1"/>
</linearGradient>
</defs>
</svg>
